<svg width="779" height="332" viewBox="0 0 779 332" fill="none" xmlns="http://www.w3.org/2000/svg">
<path d="M740.1 213.5C740.1 213.5 739.9 213.5 739.8 213.5H679.9C700 186.6 748.3 122 748.3 122C750.5 119 751.8 115.3 751.8 111.3C751.8 101.4 743.9 93.3001 734 93.1001H660.7C653.7 93.1001 647.6 98.8001 647.6 105.8C647.6 112.8 653.3 118.4 660.2 118.4C667.1 118.4 660.4 118.4 660.5 118.4H719.5L651.3 209.6C649 212.6 647.6 216.4 647.6 220.6C647.6 230.7 655.7 238.8 665.8 238.8H740.1C746.5 238.8 751.7 233.1 751.7 226.1C751.7 219.1 746.5 213.5 740.1 213.5Z" fill="#292A51"/>
<path d="M631.5 105C631.5 105 631.5 105 631.5 104.9C631.5 97.9002 625.8 92.2002 618.8 92.2002C611.8 92.2002 606.1 97.9002 606.1 104.9C606.1 111.9 606.1 104.9 606.1 105C606.1 109.2 606.1 172.7 606.1 181.5C606.1 202.1 593.6 213.2 571.7 213.2C549.8 213.2 535.9 201.9 535.9 181.4V105.3C535.9 105.3 535.9 105.3 535.9 105.2C535.9 105.1 535.9 105.2 535.9 105.1C535.9 105 535.9 105 535.9 105C535.7 98.1002 530.2 92.6002 523.3 92.6002C516.4 92.6002 510.8 98.1002 510.7 105C510.7 105.2 510.7 105.2 510.7 105.3C510.7 105.4 510.7 105.3 510.7 105.4V181.7C510.7 213.2 538.2 238.7 571.8 238.7C605.4 238.7 631.5 213.2 631.5 181.7C631.5 150.2 631.5 109.4 631.5 105.2V105Z" fill="#292A51"/>
<path d="M421.7 91.8998C407.7 91.8998 394.6 95.7998 383.5 102.7V136.3C392.2 124.7 406.1 117.2 421.7 117.2C448 117.2 469.4 138.6 469.4 164.9C469.4 191.2 448.1 212.6 421.7 212.6C395.3 212.6 374 191.2 374 164.9V34.0998C374 34.0998 374 34.0998 374 33.9998C374 26.9998 368.3 21.2998 361.3 21.2998C354.3 21.2998 348.6 26.9998 348.6 33.9998C348.6 40.9998 348.6 33.9998 348.6 34.0998V164.8C348.6 205.1 381.3 237.8 421.6 237.8C461.9 237.8 494.6 205.1 494.6 164.8C494.6 124.5 461.9 91.7998 421.6 91.7998L421.7 91.8998Z" fill="#292A51"/>
<path d="M261 92C220.7 92 188 124.7 188 165C188 205.3 220.7 238 261 238C301.3 238 334 205.3 334 165C334 124.7 301.3 92 261 92ZM261 212.7C234.7 212.7 213.3 191.3 213.3 165C213.3 138.7 234.6 117.3 261 117.3C287.4 117.3 308.7 138.7 308.7 165C308.7 191.3 287.4 212.7 261 212.7Z" fill="#292A51"/>
<path d="M100 237.9C114 237.9 127.1 234 138.2 227.1V193.5C129.5 205.1 115.6 212.6 100 212.6C73.7 212.6 52.3 191.2 52.3 164.9C52.3 138.6 73.6 117.2 100 117.2C126.4 117.2 147.7 138.6 147.7 164.9V295.6C147.7 295.6 147.7 295.6 147.7 295.7C147.7 302.7 153.4 308.4 160.3 308.4C167.2 308.4 173 302.7 173 295.7C173 288.7 173 295.7 173 295.6V164.9C173 124.6 140.3 91.8999 100 91.8999C59.7 91.8999 27 124.6 27 164.9C27 205.2 59.7 237.9 100 237.9Z" fill="#292A51"/>
</svg>
