<svg xmlns="http://www.w3.org/2000/svg" viewBox="0 0 24 24"><circle cx="12" cy="12" r="12" fill="#1ED760"/><path d="M17.297 17.348a.747.747 0 01-1.025.244c-2.807-1.719-6.349-2.107-10.521-1.151a.75.75 0 01-.334-1.463c4.563-1.043 8.463-.613 11.563 1.288a.75.75 0 01.317 1.082zm1.453-2.599a.934.934 0 01-1.277.304c-3.215-1.969-8.113-2.541-11.91-1.389a.936.936 0 01-.537-1.8c4.236-1.264 9.563-.633 13.237 1.553a.936.936 0 01.487 1.332zm.13-2.646C16.1 10.5 7.9 10.3 5.1 11.1a1.125 1.125 0 01-.646-2.162c3.271-.977 12.229-.75 15.646 1.646a1.125 1.125 0 01-1.188 1.919z" fill="#fff"/></svg>
